<svg
  className="size-5"
  width="24"
  height="24"
  viewBox="0 0 24 24"
  fill="none"
  xmlns="http://www.w3.org/2000/svg"
>
  <path
    fillRule="evenodd"
    clipRule="evenodd"
    d="M10.4896 2.23062C11.4107 1.92313 12.5893 1.92313 13.5104 2.23062L13.8587 3.27582C14.0452 3.8353 14.5712 4.21314 15.1609 4.21314H16.2627C17.2321 4.21314 18.1346 4.59777 18.8201 5.28327C19.5056 5.96877 19.8902 6.87127 19.8902 7.84068V8.94249C19.8902 9.53221 20.2681 10.0582 20.8275 10.2447L21.8728 10.593C22.1802 11.5141 22.1802 12.6927 21.8728 13.6138L20.8275 13.9621C20.2681 14.1486 19.8902 14.6746 19.8902 15.2643V16.3661C19.8902 17.3355 19.5056 18.238 18.8201 18.9235C18.1346 19.609 17.2321 19.9937 16.2627 19.9937H15.1609C14.5712 19.9937 14.0452 20.3715 13.8587 20.931L13.5104 21.9762C12.5893 22.2837 11.4107 22.2837 10.4896 21.9762L10.1413 20.931C9.95482 20.3715 9.42882 19.9937 8.83909 19.9937H7.73729C6.76788 19.9937 5.86538 19.609 5.17988 18.9235C4.49438 18.238 4.10975 17.3355 4.10975 16.3661V15.2643C4.10975 14.6746 3.73191 14.1486 3.17243 13.9621L2.12723 13.6138C1.81974 12.6927 1.81974 11.5141 2.12723 10.593L3.17243 10.2447C3.73191 10.0582 4.10975 9.53221 4.10975 8.94249V7.84068C4.10975 6.87127 4.49438 5.96877 5.17988 5.28327C5.86538 4.59777 6.76788 4.21314 7.73729 4.21314H8.83909C9.42882 4.21314 9.95482 3.8353 10.1413 3.27582L10.4896 2.23062ZM12 8.25C9.92893 8.25 8.25 9.92893 8.25 12C8.25 14.0711 9.92893 15.75 12 15.75C14.0711 15.75 15.75 14.0711 15.75 12C15.75 9.92893 14.0711 8.25 12 8.25ZM9.75 12C9.75 10.7574 10.7574 9.75 12 9.75C13.2426 9.75 14.25 10.7574 14.25 12C14.25 13.2426 13.2426 14.25 12 14.25C10.7574 14.25 9.75 13.2426 9.75 12Z"
    fill="currentColor"
  />
</svg>